<svg width="24" height="24" viewBox="0 0 24 24" fill="none" xmlns="http://www.w3.org/2000/svg">
<g id="bath 1">
<g id="Group">
<g id="Group_2">
<path id="Vector" d="M22.5 11.9554H1.5C0.672984 11.9554 0 12.6284 0 13.4554C0 14.2825 0.672984 14.9554 1.5 14.9554H22.5C23.327 14.9554 24 14.2825 24 13.4554C24 12.6284 23.327 11.9554 22.5 11.9554Z" fill="black"/>
</g>
</g>
<g id="Group_3">
<g id="Group_4">
<path id="Vector_2" d="M22.638 13.9745C22.367 13.8985 22.095 14.0525 22.02 14.3185L21.981 14.4555H2.01998L1.97999 14.3185C1.90499 14.0525 1.63101 13.9005 1.36199 13.9745C1.09598 14.0505 0.942978 14.3275 1.01901 14.5925L2.39699 19.4165C2.82398 20.9115 4.20801 21.9555 5.76201 21.9555H18.237C19.792 21.9555 21.175 20.9115 21.602 19.4165L22.98 14.5925C23.057 14.3274 22.903 14.0505 22.638 13.9745ZM5.76299 19.9554C5.09699 19.9554 4.50299 19.5084 4.32098 18.8674L3.67199 16.5934C3.59601 16.3274 3.74999 16.0514 4.01498 15.9754C4.28296 15.8994 4.55798 16.0544 4.63298 16.3194L5.28196 18.5934C5.34398 18.8064 5.54095 18.9564 5.76295 18.9564C6.03895 18.9564 6.26296 19.1805 6.26296 19.4565C6.26301 19.7325 6.03899 19.9554 5.76299 19.9554Z" fill="black"/>
</g>
</g>
<g id="Group_5">
<g id="Group_6">
<path id="Vector_3" d="M6.72299 21.0075C6.47601 20.8865 6.17699 20.9835 6.05198 21.2315L5.05199 23.2315C4.92899 23.4785 5.02898 23.7785 5.27601 23.9025C5.34899 23.9385 5.42502 23.9555 5.50002 23.9555C5.68302 23.9555 5.85904 23.8545 5.94702 23.6785L6.94701 21.6785C7.07001 21.4314 6.96998 21.1314 6.72299 21.0075Z" fill="black"/>
</g>
</g>
<g id="Group_7">
<g id="Group_8">
<path id="Vector_4" d="M18.948 23.2326L17.948 21.2326C17.824 20.9846 17.524 20.8856 17.277 21.0086C17.03 21.1326 16.93 21.4326 17.053 21.6796L18.0529 23.6796C18.1409 23.8546 18.3169 23.9556 18.4999 23.9556C18.5749 23.9556 18.6509 23.9386 18.724 23.9036C18.971 23.7796 19.071 23.4796 18.948 23.2326Z" fill="black"/>
</g>
</g>
<g id="Group_9">
<g id="Group_10">
<path id="Vector_5" d="M20.085 0.0445557C19.575 0.0445557 19.095 0.24354 18.734 0.604571L17.147 2.19157C16.952 2.38657 16.952 2.70359 17.147 2.89859C17.342 3.09359 17.6591 3.09359 17.8541 2.89859L19.441 1.31257C19.612 1.14059 19.841 1.04557 20.09 1.04557C20.592 1.04557 21 1.45357 21 1.95556V12.4556C21 12.7316 21.224 12.9556 21.5 12.9556C21.776 12.9556 22 12.7316 22.001 12.4546V1.95457C22.001 0.901571 21.145 0.0445557 20.085 0.0445557Z" fill="black"/>
</g>
</g>
<g id="Group_11">
<g id="Group_12">
<path id="Vector_6" d="M18.354 2.69161L17.354 1.69162C17.24 1.57762 17.081 1.52461 16.919 1.55161L14.419 1.96162C14.235 1.99162 14.084 2.12161 14.025 2.29762C13.966 2.47364 14.011 2.66962 14.141 2.80261L17.141 5.89261C17.2361 5.99161 17.367 6.04462 17.499 6.04462C17.546 6.04462 17.594 6.03764 17.641 6.02362C17.819 5.97164 17.954 5.82464 17.99 5.64262L18.49 3.14264C18.523 2.97961 18.472 2.81057 18.354 2.69161Z" fill="black"/>
</g>
</g>
<g id="Group_13">
<g id="Group_14">
<path id="Vector_7" d="M11.853 6.10255C11.658 5.90755 11.341 5.90755 11.146 6.10255L10.146 7.10254C9.95101 7.29754 9.95101 7.61455 10.146 7.80955C10.244 7.90654 10.372 7.95557 10.5 7.95557C10.628 7.95557 10.756 7.90659 10.853 7.80955L11.853 6.80957C12.048 6.61452 12.048 6.29755 11.853 6.10255Z" fill="black"/>
</g>
</g>
<g id="Group_15">
<g id="Group_16">
<path id="Vector_8" d="M13.853 8.10243C13.658 7.90743 13.341 7.90743 13.146 8.10243L12.146 9.10241C11.951 9.29741 11.951 9.61443 12.146 9.80943C12.244 9.90641 12.372 9.95544 12.5 9.95544C12.628 9.95544 12.756 9.90646 12.853 9.80943L13.853 8.80944C14.048 8.61444 14.048 8.29743 13.853 8.10243Z" fill="black"/>
</g>
</g>
<g id="Group_17">
<g id="Group_18">
<path id="Vector_9" d="M14.853 5.10243C14.658 4.90743 14.341 4.90743 14.146 5.10243L13.146 6.10241C12.951 6.29742 12.951 6.61443 13.146 6.80943C13.244 6.90642 13.372 6.95545 13.5 6.95545C13.628 6.95545 13.756 6.90646 13.853 6.80943L14.853 5.80944C15.048 5.61444 15.048 5.29743 14.853 5.10243Z" fill="black"/>
</g>
</g>
</g>
</svg>
