<svg width="24" height="24" viewBox="0 0 24 24" fill="none" xmlns="http://www.w3.org/2000/svg">
<g id="bed 1" clip-path="url(#clip0_17:334)">
<g id="Group">
<g id="Group_2">
<g id="Group_3">
<path id="Vector" d="M2.49997 9.49999H4.99995C4.84597 9.49999 4.70094 9.42898 4.60597 9.30799C4.51095 9.18701 4.47795 9.02899 4.51498 8.87899L4.826 7.63601C4.99302 6.96701 5.59198 6.5 6.281 6.5H9.5C10.327 6.5 11 7.17298 11 7.99999V8.99998C11 9.27598 10.776 9.49999 10.5 9.49999H13.5C13.224 9.49999 13 9.27598 13 8.99998V7.99999C13 7.17298 13.673 6.5 14.5 6.5H17.719C18.408 6.5 19.007 6.96701 19.174 7.63601L19.485 8.87899C19.523 9.02801 19.489 9.18701 19.394 9.30799C19.299 9.42898 19.154 9.49999 19 9.49999H21.5C21.776 9.49999 22 9.27598 22 8.99998V5.99998C22 4.622 20.878 3.5 19.5 3.5H4.49998C3.122 3.5 2 4.622 2 5.99998V8.99998C2 9.27598 2.22397 9.49999 2.49997 9.49999Z" fill="black"/>
<path id="Vector_2" d="M21.5 10.5H2.49998C1.122 10.5 0 11.622 0 13V20C0 20.276 0.224016 20.5 0.500016 20.5C0.776016 20.5 1.00003 20.276 1.00003 20V18.5H23V20C23 20.276 23.224 20.5 23.5 20.5C23.776 20.5 24 20.276 24 20V13C24 11.622 22.878 10.5 21.5 10.5ZM23 17.5H0.999984V16.5H23V17.5H23Z" fill="black"/>
</g>
</g>
</g>
</g>
<defs>
<clipPath id="clip0_17:334">
<rect width="24" height="24" fill="white"/>
</clipPath>
</defs>
</svg>
