<svg width="135" height="121" viewBox="0 0 135 121" fill="none" xmlns="http://www.w3.org/2000/svg">
<path d="M133.564 76.3462C130.996 72.6843 125.824 71.7151 122.039 74.1836L104.811 85.3718L104.761 50.5468L110.746 55.9877C112.019 57.1444 113.678 57.781 115.421 57.781C115.424 57.781 115.428 57.781 115.431 57.781C117.312 57.7784 119.128 57.0134 120.414 55.6817C121.663 54.3878 122.318 52.6996 122.259 50.9275C122.199 49.1555 121.432 47.5121 120.098 46.3001L108.751 35.9853C107.974 35.2792 106.755 35.3178 106.027 36.0716C105.3 36.8253 105.34 38.0084 106.116 38.7146L117.463 49.0293C118.046 49.5584 118.38 50.2759 118.407 51.0493C118.432 51.8228 118.147 52.5599 117.601 53.1246C117.032 53.7146 116.259 54.0401 115.425 54.0411C115.424 54.0411 115.422 54.0411 115.421 54.0411C114.661 54.0411 113.936 53.7632 113.381 53.2582C113.38 53.2579 113.38 53.2579 113.38 53.2579L68.3237 12.3002C67.5812 11.6255 66.4258 11.6265 65.6852 12.3038L20.7454 53.384C20.1651 53.9147 19.4062 54.1926 18.6089 54.1711C17.8116 54.148 17.0714 53.8249 16.5246 53.2612C15.9777 52.6981 15.6895 51.9617 15.7135 51.1883C15.7373 50.4145 16.0703 49.6963 16.6506 49.1657L64.9492 5.0151C66.0941 3.96838 67.8902 3.96582 69.038 5.00973L97.2949 30.696C98.0714 31.4019 99.2909 31.3635 100.019 30.6097C100.746 29.856 100.706 28.6729 99.9298 27.9667L71.6731 2.28048C69.0435 -0.110274 64.9295 -0.104901 62.3067 2.29301L46.8453 16.4267L46.841 13.9057C46.84 13.111 46.5199 12.3644 45.9401 11.8036C45.3613 11.2435 44.593 10.9352 43.7756 10.9352C43.774 10.9352 43.7727 10.9352 43.7711 10.9352L32.7109 10.9503C31.8919 10.9513 31.1228 11.2619 30.5445 11.8245C29.9666 12.3872 29.6486 13.1345 29.6499 13.9295L29.6805 32.1178L14.0081 46.4441C12.6781 47.6597 11.9159 49.3051 11.8613 51.0772C11.8067 52.8493 12.4667 54.5359 13.7194 55.826C14.9718 57.1165 16.6675 57.8565 18.4939 57.9094C18.5638 57.9115 18.6337 57.9125 18.7036 57.9125C20.453 57.9125 22.1097 57.2754 23.3882 56.1061L29.3601 50.6471L29.3839 67.0966C27.4517 66.8236 25.4968 66.6803 23.533 66.6803H20.2358V65.5591C20.2358 61.7952 17.0799 58.7328 13.201 58.7328H7.03477C3.15589 58.7325 0 61.7947 0 65.5589V94.8594C0 95.892 0.862734 96.7292 1.92691 96.7292C2.99109 96.7292 3.85383 95.892 3.85383 94.8594V65.5589C3.85383 63.8569 5.28082 62.4722 7.03477 62.4722H13.2007C14.9547 62.4722 16.3817 63.8569 16.3817 65.5589V68.5499V106.877V109.838C16.3817 111.54 14.9547 112.925 13.2007 112.925H7.03477C5.28082 112.925 3.85383 111.54 3.85383 109.838V106.566C3.85383 105.534 2.99109 104.696 1.92691 104.696C0.862734 104.696 0 105.534 0 106.566V109.838C0 113.602 3.15589 116.664 7.03477 116.664H13.2007C17.0796 116.664 20.2355 113.602 20.2355 109.838V109.584L48.4547 119.954C48.5069 119.973 48.5599 119.99 48.6137 120.004C49.8406 120.34 51.0669 120.509 52.2777 120.509C52.9327 120.509 53.5831 120.46 54.227 120.361L95.6976 114.56C95.7074 114.559 95.7168 114.557 95.7266 114.556C99.2524 114.009 102.579 112.563 105.345 110.373C105.369 110.354 105.393 110.335 105.416 110.315L132.208 86.9321C135.328 84.2443 135.91 79.6933 133.564 76.3462ZM42.9883 14.6761L42.9972 19.9442L33.5283 28.6L33.5048 14.6886L42.9883 14.6761ZM67.0098 16.2302L100.902 47.0387L100.96 87.8721L95.5049 91.4152L89.7275 91.1008L89.5749 89.6117C89.0372 84.3671 85.0474 80.1482 79.7715 79.1414L79.7367 54.8488C79.7341 52.9846 78.17 51.4697 76.2492 51.4697C76.2476 51.4697 76.2463 51.4697 76.2444 51.4697L57.8786 51.4948C56.9471 51.4961 56.0717 51.8491 55.4141 52.4893C54.7562 53.1292 54.3947 53.9797 54.396 54.8834L54.4266 76.0637C50.7887 75.2567 47.3151 73.9239 44.0675 72.0805C43.6622 71.8504 43.253 71.6284 42.8404 71.4124C42.6795 71.3282 42.516 71.2492 42.3539 71.167C42.1029 71.0399 41.8524 70.9119 41.5987 70.7899C41.3967 70.6927 41.1924 70.6006 40.9888 70.5067C40.7729 70.4071 40.5572 70.3066 40.3397 70.2106C40.1182 70.1132 39.8949 70.0203 39.6718 69.9266C39.468 69.8412 39.2642 69.7552 39.059 69.6731C38.8296 69.5812 38.5989 69.493 38.368 69.4052C38.1631 69.3274 37.9579 69.2501 37.752 69.1754C37.5234 69.0925 37.2938 69.0125 37.0636 68.9339C36.8476 68.86 36.6314 68.7878 36.4141 68.7174C36.1937 68.6461 35.9728 68.5762 35.7507 68.5084C35.5142 68.436 35.2767 68.3669 35.0388 68.2986C34.8345 68.2403 34.6304 68.1819 34.425 68.1267C34.1568 68.0543 33.8874 67.9865 33.6176 67.9194C33.4913 67.8879 33.3658 67.8524 33.2387 67.8219L33.2089 47.1285L67.0098 16.2302ZM75.9172 78.6734L59.8003 76.873L58.2818 76.7033L58.2507 55.2339L75.8835 55.2099L75.9172 78.6734ZM129.64 84.144L102.875 107.503C100.644 109.258 97.9689 110.419 95.1331 110.861L53.6804 116.659C53.6717 116.66 53.6633 116.662 53.6546 116.663L53.6258 116.667C52.37 116.86 51.0622 116.779 49.7383 116.426L20.2358 105.585V70.4197H23.533C26.3398 70.4197 29.1276 70.7341 31.8423 71.3449C31.9433 71.3676 32.044 71.3909 32.1448 71.4145C32.4783 71.4925 32.8111 71.5728 33.1422 71.6598C33.1712 71.6675 33.2 71.6757 33.229 71.6834C33.5609 71.7714 33.8916 71.8643 34.2212 71.9612C34.2802 71.9786 34.3396 71.9958 34.3984 72.0134C34.7491 72.1186 35.0982 72.2283 35.4454 72.3435C35.4813 72.3555 35.5169 72.3678 35.5527 72.3798C36.276 72.6221 36.9921 72.8864 37.6993 73.1725C37.7378 73.1881 37.7763 73.2037 37.8148 73.2196C38.1673 73.3633 38.5177 73.512 38.8658 73.6665C38.875 73.6706 38.8845 73.675 38.8937 73.6793C39.2302 73.8293 39.5642 73.9848 39.8962 74.1447C39.9352 74.1634 39.9745 74.1818 40.0135 74.2008C40.3378 74.3581 40.6595 74.5211 40.9794 74.6879C41.0397 74.7194 41.0999 74.7516 41.1602 74.7834C41.483 74.954 41.8039 75.128 42.1216 75.3084C46.7071 77.9112 51.6989 79.5971 56.9587 80.3194C56.9753 80.3217 56.9916 80.3237 57.0082 80.3255L78.5979 82.7375C78.7174 82.7541 78.836 82.7733 78.9539 82.7948C82.1322 83.3741 84.6408 85.653 85.48 88.6208C85.6045 89.0603 85.692 89.5152 85.74 89.9817L85.8257 90.8183L45.3626 87.3783C44.3032 87.2885 43.3677 88.0492 43.2749 89.0777C43.1818 90.1065 43.9662 91.0135 45.0262 91.1036L87.8048 94.7406C87.8151 94.7414 87.8251 94.7412 87.8352 94.7419C87.8452 94.7427 87.8549 94.7442 87.8652 94.745L95.9328 95.1843C95.9689 95.1864 96.0048 95.1871 96.0406 95.1871C96.0789 95.1871 96.1166 95.1812 96.1545 95.1789C96.1975 95.1764 96.2405 95.1748 96.2832 95.1697C96.3407 95.1626 96.3969 95.1505 96.4533 95.1385C96.4936 95.1298 96.5342 95.1234 96.5738 95.1122C96.6355 95.095 96.6948 95.0717 96.7547 95.0484C96.7868 95.0359 96.82 95.0264 96.8517 95.0121C96.9416 94.9717 97.0291 94.9251 97.1125 94.8709L103.961 90.4238C103.961 90.4235 103.961 90.4233 103.961 90.423L124.185 77.2892C126.22 75.9621 128.998 76.4828 130.377 78.4498C131.638 80.2475 131.325 82.6922 129.64 84.144Z" fill="#00413F"/>
</svg>
