<svg width="130" height="50" viewBox="0 0 130 50" fill="none" xmlns="http://www.w3.org/2000/svg">
<g id="Group 1">
<path id="HOOMZ" d="M34.695 26.4573V33.1991H25.9842V26.4573H24.8498V41.439H25.9842V34.2692H34.695V41.439H35.8293V26.4573H34.695ZM50.6938 41.6745C55.0171 41.6745 58.4201 38.2287 58.4201 33.9482C58.4201 29.6677 55.0171 26.2219 50.6938 26.2219C46.3705 26.2219 42.9675 29.6677 42.9675 33.9482C42.9675 38.2287 46.3705 41.6745 50.6938 41.6745ZM50.6938 40.5829C46.9912 40.5829 44.1018 37.6294 44.1018 33.9482C44.1018 30.267 46.9912 27.3134 50.6938 27.3134C54.3964 27.3134 57.2857 30.267 57.2857 33.9482C57.2857 37.6294 54.3964 40.5829 50.6938 40.5829ZM72.4474 41.6745C76.7706 41.6745 80.1736 38.2287 80.1736 33.9482C80.1736 29.6677 76.7706 26.2219 72.4474 26.2219C68.1241 26.2219 64.7211 29.6677 64.7211 33.9482C64.7211 38.2287 68.1241 41.6745 72.4474 41.6745ZM72.4474 40.5829C68.7447 40.5829 65.8554 37.6294 65.8554 33.9482C65.8554 30.267 68.7447 27.3134 72.4474 27.3134C76.15 27.3134 79.0393 30.267 79.0393 33.9482C79.0393 37.6294 76.15 40.5829 72.4474 40.5829ZM100.878 26.4573H99.4445L94.0939 35.3179L88.7433 26.4573H87.3307V41.439H88.4651V28.1267L94.0083 37.3298H94.2009L99.7442 28.1267V41.439H100.878V26.4573ZM109.196 40.3689L117.286 27.5274V26.4573H108.148V27.5274H116.024L107.934 40.3689V41.439H117.5V40.3689H109.196Z" fill="white"/>
<line id="Line 1" x1="0.396341" y1="19.061" x2="0.39634" y2="49.9756" stroke="white" stroke-width="0.792683"/>
<line id="Line 2" y1="49.5793" x2="130" y2="49.5793" stroke="white" stroke-width="0.792683"/>
<line id="Line 3" x1="129.604" y1="49.9756" x2="129.604" y2="19.061" stroke="white" stroke-width="0.792683"/>
<line id="Line 4" y1="18.6646" x2="49.1463" y2="18.6646" stroke="white" stroke-width="0.792683"/>
<line id="Line 5" x1="80.8537" y1="18.6646" x2="130" y2="18.6646" stroke="white" stroke-width="0.792683"/>
<g id="Group">
<g id="Group_2">
<path id="Vector" d="M74.5691 6.29027H74.3648L72.4494 0.803191C72.2817 0.32278 71.8455 0 71.3638 0H57.8435C57.3619 0 56.9256 0.32278 56.7579 0.803191L54.8425 6.29027H54.6383C54.2325 6.29027 53.9025 6.64147 53.9025 7.07317V7.70219C53.9025 8.1339 54.2325 8.4851 54.6383 8.4851H54.747V15.7969C54.747 15.9811 54.8874 16.1305 55.0605 16.1305C55.2337 16.1305 55.3741 15.9811 55.3741 15.7969V8.4851H60.2966C60.5721 8.4851 60.8311 8.37097 61.0259 8.16365L64.6037 4.3567L68.1815 8.16365C68.3763 8.37092 68.6353 8.48505 68.9108 8.48505H73.8334V9.36946C73.8334 9.55369 73.9737 9.70305 74.1469 9.70305C74.3201 9.70305 74.4604 9.55369 74.4604 9.36946V8.48505H74.5692C74.9748 8.48505 75.3049 8.13385 75.3049 7.70214V7.07313C75.3049 6.64147 74.9748 6.29027 74.5691 6.29027ZM57.3457 1.03546C57.4226 0.815155 57.6226 0.667176 57.8435 0.667176H71.3638C71.5847 0.667176 71.7847 0.8152 71.8617 1.03546L73.696 6.29027H69.338L65.333 2.02879C65.1382 1.82152 64.8792 1.70735 64.6037 1.70735C64.3282 1.70735 64.0692 1.82148 63.8744 2.02879L59.8694 6.29027H55.5114L57.3457 1.03546ZM74.6779 7.70219C74.6779 7.76602 74.6291 7.81792 74.5691 7.81792H68.9108C68.8028 7.81792 68.7012 7.77318 68.6249 7.69191L64.8254 3.6491C64.7665 3.58651 64.6868 3.55138 64.6036 3.55138C64.5205 3.55138 64.4408 3.58651 64.3819 3.6491L60.5825 7.69191C60.5061 7.77318 60.4045 7.81792 60.2965 7.81792H54.6383C54.5783 7.81792 54.5295 7.76602 54.5295 7.70219V7.07317C54.5295 7.00935 54.5783 6.95744 54.6383 6.95744H59.9992C60.0824 6.95744 60.1621 6.92231 60.221 6.85972L64.3178 2.50053C64.3942 2.41927 64.4957 2.37452 64.6037 2.37452C64.7117 2.37452 64.8133 2.41927 64.8896 2.50053L68.9865 6.85972C69.0453 6.92231 69.125 6.95744 69.2082 6.95744H74.5692C74.6292 6.95744 74.678 7.00935 74.678 7.07317V7.70219H74.6779Z" fill="#B7F2E4"/>
<path id="Vector_2" d="M72.7534 17.7409C72.9266 17.7409 73.0669 17.5915 73.0669 17.4073V11.4765C73.0669 11.2922 72.9266 11.1429 72.7534 11.1429H68.5307C68.3575 11.1429 68.2172 11.2922 68.2172 11.4765V17.4073C68.2172 17.5915 68.3575 17.7409 68.5307 17.7409H72.7534ZM72.4399 15.6359H70.9555V14.0566H72.4399V15.6359ZM70.3285 15.6359H68.8442V14.0566H70.3285V15.6359ZM72.4399 17.0737H68.8442V16.3031H72.4399V17.0737ZM72.4399 13.3894H70.9555V11.81H72.4399V13.3894ZM70.3285 11.8101V13.3894H68.8442V11.8101H70.3285Z" fill="#B7F2E4"/>
<path id="Vector_3" d="M60.6766 17.7409C60.8498 17.7409 60.9901 17.5915 60.9901 17.4073V11.4765C60.9901 11.2922 60.8498 11.1429 60.6766 11.1429H56.4539C56.2807 11.1429 56.1404 11.2922 56.1404 11.4765V17.4073C56.1404 17.5915 56.2807 17.7409 56.4539 17.7409H60.6766ZM60.3631 15.6359H58.8788V14.0566H60.3631V15.6359ZM58.2518 15.6359H56.7674V14.0566H58.2518V15.6359ZM60.3631 17.0737H56.7674V16.3031H60.3631V17.0737ZM60.3631 13.3894H58.8788V11.81H60.3631V13.3894ZM58.2518 11.8101V13.3894H56.7674V11.8101H58.2518Z" fill="#B7F2E4"/>
<path id="Vector_4" d="M65.6171 12.5805H63.5902C63.4171 12.5805 63.2767 12.7299 63.2767 12.9141V14.3519C63.2767 14.5361 63.4171 14.6854 63.5902 14.6854H65.6171C65.7903 14.6854 65.9306 14.5361 65.9306 14.3519V12.9141C65.9306 12.7299 65.7903 12.5805 65.6171 12.5805ZM65.3036 14.0183H63.9038V13.2477H65.3036V14.0183Z" fill="#B7F2E4"/>
<path id="Vector_5" d="M66.2684 8.37609C66.2684 7.39939 65.5216 6.60474 64.6036 6.60474C63.6857 6.60474 62.9389 7.39939 62.9389 8.37609C62.9389 9.35279 63.6857 10.1475 64.6036 10.1475C65.5216 10.1475 66.2684 9.35284 66.2684 8.37609ZM63.5659 8.37609C63.5659 7.76727 64.0315 7.27191 64.6036 7.27191C65.1758 7.27191 65.6414 7.76727 65.6414 8.37609C65.6414 8.98491 65.1758 9.48031 64.6036 9.48031C64.0315 9.48031 63.5659 8.98496 63.5659 8.37609Z" fill="#B7F2E4"/>
<path id="Vector_6" d="M74.9914 18.2418H74.4604V10.93C74.4604 10.7458 74.3201 10.5964 74.1469 10.5964C73.9737 10.5964 73.8334 10.7458 73.8334 10.93V18.2418H67.2819V11.4764C67.2819 11.2922 67.1415 11.1429 66.9684 11.1429H62.239C62.0658 11.1429 61.9255 11.2922 61.9255 11.4764V18.2418H55.374V17.3574C55.374 17.1732 55.2337 17.0238 55.0605 17.0238C54.8873 17.0238 54.747 17.1732 54.747 17.3574V18.2418H54.216C54.0428 18.2418 53.9025 18.3912 53.9025 18.5754V20.1031C53.9025 20.2873 54.0428 20.4367 54.216 20.4367H74.9914C75.1646 20.4367 75.3049 20.2873 75.3049 20.1031V18.5754C75.3049 18.3912 75.1646 18.2418 74.9914 18.2418ZM62.5525 15.8088H62.9991C63.1723 15.8088 63.3126 15.6595 63.3126 15.4752C63.3126 15.291 63.1723 15.1416 62.9991 15.1416H62.5525V11.81H66.6549V18.2418H62.5525V15.8088ZM74.6779 19.7695H54.5295V18.909H74.6779V19.7695Z" fill="#B7F2E4"/>
</g>
</g>
</g>
</svg>
