<svg width="24" height="24" viewBox="0 0 24 24" fill="none" xmlns="http://www.w3.org/2000/svg">
<g id="Group">
<g id="Group_2">
<g id="Group_3">
<path id="Vector" d="M23.5967 20.1347C23.1714 19.8395 22.5872 19.9449 22.292 20.3703C21.104 22.0817 17.646 22.0827 16.4574 20.3703C16.2821 20.1179 15.9945 19.9674 15.6872 19.9674C15.3799 19.9674 15.0922 20.1179 14.917 20.3702C13.729 22.0817 10.2711 22.0827 9.08236 20.3702C8.90714 20.1179 8.61947 19.9674 8.3122 19.9674C8.00494 19.9674 7.71722 20.1179 7.54205 20.3703C6.35401 22.0818 2.8961 22.0827 1.70741 20.3703C1.41214 19.9449 0.827941 19.8395 0.402693 20.1347C-0.0226489 20.43 -0.128117 21.014 0.167147 21.4394C1.8883 23.9188 6.04923 24.1873 8.3122 22.2808C10.3023 23.9573 13.7204 23.9376 15.6872 22.2808C17.9495 24.1868 22.1126 23.9166 23.8322 21.4394C24.1274 21.014 24.022 20.43 23.5967 20.1347Z" fill="black"/>
<path id="Vector_2" d="M4.59381 14.8116C5.11158 14.8116 5.5313 14.3919 5.5313 13.8742V12.468H13.9687V13.8742C13.9687 14.3919 14.3884 14.8116 14.9062 14.8116C15.424 14.8116 15.8437 14.3919 15.8437 13.8742V3.65617C15.8437 2.93251 16.4324 2.34377 17.1562 2.34377C17.8799 2.34377 18.4687 2.93251 18.4687 3.65617C18.4687 4.1739 18.8884 4.59361 19.4062 4.59361C19.924 4.59361 20.3437 4.1739 20.3437 3.65617C20.3437 1.89869 18.9138 0.468872 17.1562 0.468872C15.3987 0.468872 13.9688 1.89869 13.9688 3.65617V6.37471H5.5313V3.65617C5.5313 2.93251 6.12005 2.34377 6.84379 2.34377C7.56754 2.34377 8.15628 2.93251 8.15628 3.65617C8.15628 4.1739 8.576 4.59361 9.09378 4.59361C9.61156 4.59361 10.0313 4.1739 10.0313 3.65617C10.0312 1.89869 8.60136 0.468872 6.84379 0.468872C5.08622 0.468872 3.65631 1.89869 3.65631 3.65617V13.8742C3.65631 14.3919 4.07603 14.8116 4.59381 14.8116ZM5.5313 8.24956H13.9687V10.5932H5.5313V8.24956Z" fill="black"/>
<path id="Vector_3" d="M8.31234 18.0625C9.25617 18.8577 10.5652 19.3114 11.9998 19.3114C13.4344 19.3114 14.7434 18.8577 15.6872 18.0625C17.9496 19.9685 22.1127 19.6983 23.8323 17.2211C24.1275 16.7958 24.0221 16.2116 23.5967 15.9164C23.1714 15.6213 22.5872 15.7267 22.292 16.152C21.104 17.8634 17.646 17.8644 16.4574 16.152C16.2821 15.8996 15.9945 15.7491 15.6872 15.7491C15.3799 15.7491 15.0922 15.8996 14.917 16.152C13.729 17.8634 10.2711 17.8644 9.08236 16.152C8.90714 15.8996 8.61947 15.7491 8.3122 15.7491C8.00494 15.7491 7.71722 15.8997 7.54205 16.152C6.35401 17.8635 2.8961 17.8644 1.70741 16.152C1.41214 15.7266 0.827941 15.6213 0.402693 15.9164C-0.0226489 16.2117 -0.128117 16.7958 0.167147 17.2211C1.8883 19.7006 6.04923 19.969 8.31234 18.0625Z" fill="black"/>
</g>
</g>
</g>
</svg>
