<svg width="32" height="32" viewBox="0 0 32 32" fill="none" xmlns="http://www.w3.org/2000/svg">
<g clip-path="url(#clip0_21:5)">
<path d="M19.082 22.174C19.3821 22.1743 19.6254 22.4176 19.6257 22.7177C19.6257 23.0086 19.8615 23.2444 20.1524 23.2444C20.4433 23.2444 20.6791 23.0086 20.6791 22.7177C20.6781 21.9878 20.1835 21.3513 19.4768 21.17C19.4549 20.8894 19.2165 20.6757 18.9354 20.6845C18.6541 20.6932 18.4295 20.9213 18.4252 21.2027V21.2626C17.7393 21.5722 17.3625 22.3186 17.5209 23.0541C17.6793 23.7896 18.3298 24.3148 19.082 24.3145C19.3824 24.3145 19.6257 24.5581 19.6257 24.8582C19.6257 25.1583 19.3824 25.4016 19.082 25.4016C18.7819 25.4016 18.5386 25.1583 18.5386 24.8582C18.5386 24.5674 18.3027 24.3315 18.0119 24.3315C17.721 24.3315 17.4852 24.5674 17.4852 24.8582C17.4859 25.4855 17.8535 26.0546 18.4252 26.3131V26.4697C18.4252 26.7606 18.6607 26.9964 18.9519 26.9964C19.2427 26.9964 19.4786 26.7606 19.4786 26.4697V26.4054C20.2581 26.2056 20.7673 25.4569 20.6665 24.6584C20.5659 23.8601 19.887 23.2611 19.082 23.2611C18.7842 23.2581 18.5445 23.0155 18.5445 22.7177C18.5445 22.4196 18.7842 22.1774 19.082 22.174Z" fill="#977D1E"/>
<path d="M18.9439 19.4043C16.5015 19.4043 14.5215 21.3843 14.5217 23.8267C14.5217 26.2692 16.5017 28.2492 18.9442 28.2492C21.3866 28.2492 23.3666 26.2692 23.3666 23.8267C23.3638 21.3853 21.3853 19.4069 18.9439 19.4043ZM18.9439 27.1958C17.0832 27.1955 15.5749 25.6872 15.5751 23.8265C15.5751 21.9661 17.0835 20.4577 18.9442 20.4577C20.8049 20.4577 22.3132 21.9661 22.3132 23.8267C22.3109 25.6864 20.8038 27.1937 18.9439 27.1958Z" fill="#977D1E"/>
<path d="M28.6552 20.9388H27.9058V20.051C27.8991 19.0871 27.1173 18.3081 26.1532 18.3053H25.1406V10.9315H27.7381C27.9619 10.9369 28.1633 10.7975 28.2368 10.5861C28.3104 10.3749 28.2391 10.1404 28.0604 10.0059L15.2629 0.108845C15.0729 -0.0372322 14.8082 -0.036975 14.6187 0.109874L1.78776 10.0105C1.60979 10.1432 1.53829 10.3762 1.61108 10.5861C1.68514 10.7969 1.88626 10.9363 2.10975 10.9315H4.46756V23.3059C4.47194 23.5967 4.70777 23.8308 4.99864 23.8326L9.99794 23.8786V27.6015C9.99794 28.5608 10.7754 29.366 11.7349 29.366H12.4998V30.2603C12.4995 31.22 13.277 31.9985 14.237 31.9996H28.6555C29.6181 31.9996 30.4007 31.2229 30.4077 30.2603V22.7097C30.4077 21.7502 29.6148 20.9388 28.6552 20.9388ZM14.9401 1.17048L26.1966 9.87805H3.65436L14.9401 1.17048ZM5.52097 22.7841V10.9315H24.0872V18.3053H11.7349C10.7738 18.3094 9.99717 19.0899 9.99794 20.051V22.8255L5.52097 22.7841ZM26.8524 27.6262C26.8524 28.0053 26.5448 28.3126 26.1658 28.3126H11.7378C11.3587 28.3126 11.0513 28.0053 11.0513 27.6262V20.0451C11.0513 19.666 11.3587 19.3587 11.7378 19.3587H26.1658C26.5448 19.3587 26.8524 19.666 26.8524 20.0451V27.6262ZM29.3543 30.2603C29.3478 30.6414 29.0366 30.9469 28.6552 30.9461H14.2368C13.8585 30.9456 13.5524 30.6386 13.5532 30.2603V29.366H26.1532C27.1209 29.3545 27.9007 28.5693 27.9058 27.6015V21.9922H28.6552C29.0338 21.9922 29.3543 22.3312 29.3543 22.7097V30.2603Z" fill="#977D1E"/>
<path d="M12.7169 19.5674C11.9433 19.5674 11.3163 20.1946 11.3163 20.9682C11.3163 21.7418 11.9435 22.3688 12.7171 22.3688C13.4907 22.3688 14.1177 21.7416 14.1177 20.968C14.1167 20.1949 13.4902 19.5684 12.7169 19.5674ZM12.7169 21.3154C12.5253 21.3154 12.3697 21.1598 12.3697 20.968C12.3697 20.7764 12.5253 20.6208 12.7169 20.6208C12.9087 20.6208 13.0643 20.7764 13.0643 20.968C13.064 21.1598 12.9087 21.3152 12.7169 21.3154Z" fill="#977D1E"/>
<path d="M26.5716 26.6489C26.5716 25.8753 25.9443 25.2483 25.1707 25.2483C24.3974 25.2483 23.7701 25.8756 23.7701 26.6491C23.7701 27.4227 24.3974 28.0497 25.171 28.0497C25.9443 28.0487 26.5708 27.4222 26.5716 26.6489ZM25.171 26.9963C24.9791 26.9963 24.8235 26.8407 24.8235 26.6491C24.8235 26.4573 24.9791 26.3017 25.171 26.3017C25.3628 26.3017 25.5182 26.4573 25.5182 26.6491C25.5179 26.8407 25.3626 26.9961 25.171 26.9963Z" fill="#977D1E"/>
</g>
<defs>
<clipPath id="clip0_21:5">
<rect width="32" height="32" fill="white"/>
</clipPath>
</defs>
</svg>
