<svg width="135" height="131" viewBox="0 0 135 131" fill="none" xmlns="http://www.w3.org/2000/svg">
<path d="M67.5 15.1817L16.875 48.5314V124.859H118.125V48.5314L67.5 15.1817Z" fill="#EAE8E5"/>
<path d="M35.8594 83.9219H59.0625V124.859H35.8594V83.9219Z" fill="#00413F"/>
<path d="M82.2656 102.344H111.797V110.531H82.2656V102.344Z" fill="#00413F"/>
<path d="M75.9375 124.859V96.2031L80.1562 90.0625L84.375 96.2031V124.859H75.9375Z" fill="#00413F"/>
<path d="M92.8125 124.859V96.2031L97.0312 90.0625L101.25 96.2031V124.859H92.8125Z" fill="#00413F"/>
<path d="M109.688 124.859V96.2031L113.906 90.0625L118.125 96.2031V124.859H109.688Z" fill="#00413F"/>
<path d="M73.8281 65.5H61.1719C57.6766 65.5 54.8438 62.751 54.8438 59.3594V47.0781C54.8438 43.6865 57.6766 40.9375 61.1719 40.9375H73.8281C77.3234 40.9375 80.1562 43.6865 80.1562 47.0781V59.3594C80.1562 62.751 77.3234 65.5 73.8281 65.5Z" fill="#5D8896"/>
<path d="M80.1562 51.1719H69.6094V40.9375H65.3906V51.1719H54.8438V55.2656H65.3906V65.5H69.6094V55.2656H80.1562V51.1719Z" fill="#00413F"/>
<path d="M48.5156 102.344H52.7344V106.438H48.5156V102.344Z" fill="#00413F"/>
<path d="M14.7656 108.484H18.9844V124.859H14.7656V108.484Z" fill="#00413F"/>
<path d="M27.4219 100.297C27.4219 107.645 22.699 112.578 16.875 112.578C11.051 112.578 6.32812 107.645 6.32812 100.297C6.32812 95.499 10.8232 83.8809 13.9451 76.3914C15.0124 73.8308 18.7397 73.8308 19.807 76.3914C22.9268 83.8809 27.4219 95.499 27.4219 100.297Z" fill="#00413F"/>
<path d="M4.21875 122.812H130.781V126.906H4.21875V122.812Z" fill="#00413F"/>
<path d="M124.194 52.5126L67.5 15.1817L10.8063 52.5126L6.06866 45.7374L67.5 5.28708L128.931 45.7374L124.194 52.5126Z" fill="#00413F"/>
</svg>
