<svg width="135" height="131" viewBox="0 0 135 131" fill="none" xmlns="http://www.w3.org/2000/svg">
<g clip-path="url(#clip0_7:86)">
<path d="M98.4375 60.0417C78.2775 60.0417 61.875 75.9582 61.875 95.5208C61.875 115.083 78.2775 131 98.4375 131C118.598 131 135 115.083 135 95.5208C135 75.9582 118.598 60.0417 98.4375 60.0417ZM97.7344 91.4271H99.1406C104.957 91.4271 109.688 96.0175 109.688 101.661C109.688 106.099 106.74 109.854 102.656 111.268V113.26C102.656 115.52 100.766 117.354 98.4375 117.354C96.1088 117.354 94.2188 115.52 94.2188 113.26V111.896H91.4063C89.0775 111.896 87.1875 110.062 87.1875 107.802C87.1875 105.542 89.0775 103.708 91.4063 103.708H99.1406C100.305 103.708 101.25 102.791 101.25 101.661C101.25 100.532 100.305 99.6146 99.1406 99.6146H97.7344C91.9181 99.6146 87.1875 95.0241 87.1875 89.3802C87.1875 84.9426 90.135 81.1872 94.2188 79.7735V77.7812C94.2188 75.5215 96.1088 73.6875 98.4375 73.6875C100.766 73.6875 102.656 75.5215 102.656 77.7812V79.1458H105.469C107.798 79.1458 109.688 80.9798 109.688 83.2396C109.688 85.4993 107.798 87.3333 105.469 87.3333H97.7344C96.57 87.3333 95.625 88.2503 95.625 89.3802C95.625 90.5101 96.57 91.4271 97.7344 91.4271Z" fill="#00413F"/>
<path d="M95.625 32.5207V10.9167C95.625 7.89821 93.105 5.45833 90 5.45833C86.895 5.45833 84.375 7.89821 84.375 10.9167V21.8442L62.9944 1.55562C60.8063 -0.524003 57.3131 -0.524003 55.1306 1.55562L2.46938 51.5103C0.9 53.0495 0 55.1619 0 57.3125C0 61.8265 3.78563 65.5 8.4375 65.5H16.875V95.5208C16.875 103.048 23.1863 109.167 30.9375 109.167H45C48.105 109.167 50.625 106.727 50.625 103.708C50.625 100.69 48.105 98.25 45 98.25H30.9375C29.385 98.25 28.125 97.0219 28.125 95.5208V60.0417C28.125 57.0232 25.605 54.5833 22.5 54.5833H15.3169L59.0625 13.0891L95.9119 48.0552C98.1394 50.1675 101.694 50.1293 103.866 47.9678C106.037 45.8118 105.998 42.3567 103.776 40.2497L95.625 32.5207Z" fill="#00413F"/>
</g>
<defs>
<clipPath id="clip0_7:86">
<rect width="135" height="131" fill="white"/>
</clipPath>
</defs>
</svg>
