<svg width="26" height="27" viewBox="0 0 26 27" fill="none" xmlns="http://www.w3.org/2000/svg">
<g id="Group 3">
<path id="Line 6" d="M4.62904 12.422L4.62904 26.0783" stroke="black" stroke-width="1.5" stroke-linecap="square"/>
<path id="Line 7" d="M22.3436 12.6733V26.0784" stroke="black" stroke-width="1.5" stroke-linecap="square"/>
<path id="Line 8" d="M4.33415 26.0837H22.5267" stroke="black" stroke-width="1.5"/>
<g id="Union">
<path fill-rule="evenodd" clip-rule="evenodd" d="M13.914 2.15189C13.7262 1.94937 13.4219 1.94937 13.2341 2.15189C13.1794 2.21092 13.1407 2.28064 13.1178 2.35482C13.0944 2.28936 13.0582 2.228 13.0092 2.17519C12.8215 1.97271 12.5171 1.97271 12.3293 2.17519L1.14082 14.2413C0.95306 14.4438 0.95306 14.7721 1.14082 14.9746C1.32858 15.177 1.633 15.177 1.82076 14.9746L13.0092 2.90846C13.064 2.84945 13.1027 2.77975 13.1256 2.70559C13.149 2.77107 13.1852 2.83245 13.2341 2.88528L24.4206 14.9533C24.6083 15.1558 24.9126 15.1558 25.1004 14.9533C25.2881 14.7508 25.2881 14.4224 25.1004 14.2199L13.914 2.15189Z" fill="black"/>
<path d="M13.2341 2.15189L13.7842 2.66175L13.7842 2.66175L13.2341 2.15189ZM13.914 2.15189L13.3639 2.66175L13.3639 2.66175L13.914 2.15189ZM13.1178 2.35482L12.4117 2.60754L13.1716 4.73088L13.8347 2.57534L13.1178 2.35482ZM13.0092 2.17519L12.4593 2.68515L12.4593 2.68515L13.0092 2.17519ZM12.3293 2.17519L11.7794 1.66524V1.66524L12.3293 2.17519ZM1.14082 14.2413L0.590867 13.7313L0.590867 13.7313L1.14082 14.2413ZM1.14082 14.9746L0.590867 15.4845H0.590867L1.14082 14.9746ZM1.82076 14.9746L1.2708 14.4646L1.2708 14.4646L1.82076 14.9746ZM13.0092 2.90846L13.5592 3.41842V3.41842L13.0092 2.90846ZM13.1256 2.70559L13.8317 2.45299L13.0722 0.329532L12.4088 2.48496L13.1256 2.70559ZM13.2341 2.88528L12.6841 3.39513L12.6841 3.39514L13.2341 2.88528ZM24.4206 14.9533L23.8705 15.4632L23.8705 15.4632L24.4206 14.9533ZM25.1004 14.2199L24.5503 14.7298L24.5503 14.7298L25.1004 14.2199ZM13.7842 2.66175C13.7367 2.71301 13.6606 2.75 13.5741 2.75C13.4875 2.75 13.4114 2.71301 13.3639 2.66175L14.464 1.64203C13.9795 1.11932 13.1686 1.11932 12.6841 1.64203L13.7842 2.66175ZM13.8347 2.57534C13.8261 2.60312 13.8101 2.63376 13.7842 2.66175L12.6841 1.64203C12.5487 1.78808 12.4552 1.95816 12.401 2.1343L13.8347 2.57534ZM12.4593 2.68515C12.4361 2.66018 12.4208 2.63295 12.4117 2.60754L13.824 2.10211C13.768 1.94578 13.6803 1.79582 13.5592 1.66524L12.4593 2.68515ZM12.8793 2.68515C12.8317 2.7364 12.7557 2.77333 12.6693 2.77333C12.5828 2.77333 12.5068 2.7364 12.4593 2.68515L13.5592 1.66524C13.0747 1.14269 12.2639 1.14269 11.7794 1.66524L12.8793 2.68515ZM1.69077 14.7512L12.8793 2.68515L11.7794 1.66524L0.590867 13.7313L1.69077 14.7512ZM1.69077 14.4646C1.73565 14.513 1.75 14.567 1.75 14.6079C1.75 14.6489 1.73565 14.7028 1.69077 14.7512L0.590867 13.7313C0.136378 14.2215 0.136378 14.9944 0.590867 15.4845L1.69077 14.4646ZM1.2708 14.4646C1.31833 14.4133 1.39433 14.3764 1.48079 14.3764C1.56725 14.3764 1.64325 14.4133 1.69077 14.4646L0.590867 15.4845C1.07541 16.0071 1.88617 16.0071 2.37071 15.4845L1.2708 14.4646ZM12.4593 2.39851L1.2708 14.4646L2.37071 15.4845L13.5592 3.41842L12.4593 2.39851ZM12.4088 2.48496C12.4173 2.45714 12.4333 2.42649 12.4593 2.39851L13.5592 3.41842C13.6946 3.27241 13.7882 3.10236 13.8424 2.92623L12.4088 2.48496ZM13.7842 2.37542C13.8073 2.40039 13.8227 2.42761 13.8317 2.45299L12.4194 2.95819C12.4753 3.11454 12.563 3.26452 12.6841 3.39513L13.7842 2.37542ZM24.9706 14.4434L13.7842 2.37542L12.6841 3.39514L23.8705 15.4632L24.9706 14.4434ZM24.5503 14.4434C24.5978 14.3922 24.6739 14.3552 24.7605 14.3552C24.847 14.3552 24.9231 14.3922 24.9706 14.4434L23.8705 15.4632C24.355 15.9859 25.1659 15.9859 25.6504 15.4632L24.5503 14.4434ZM24.5503 14.7298C24.5055 14.6814 24.4912 14.6274 24.4912 14.5866C24.4912 14.5458 24.5055 14.4918 24.5503 14.4434L25.6504 15.4632C26.1047 14.973 26.1047 14.2002 25.6504 13.71L24.5503 14.7298ZM13.3639 2.66175L24.5503 14.7298L25.6504 13.71L14.464 1.64203L13.3639 2.66175Z" fill="black"/>
</g>
<path id="Line 11" d="M9.40971 12.609L9.40971 23.4696" stroke="black" stroke-width="1.5"/>
<line id="Line 12" x1="9.24187" y1="22.7196" x2="17.9698" y2="22.7196" stroke="black" stroke-width="1.5"/>
<path id="Line 13" d="M16.6613 15.2796C16.6506 14.9935 16.4268 14.7709 16.1615 14.7824L11.8379 14.9705C11.5726 14.982 11.3662 15.2233 11.3769 15.5095C11.3876 15.7956 11.6114 16.0182 11.8767 16.0066L15.7199 15.8395L15.8749 19.9841C15.8856 20.2702 16.1093 20.4928 16.3747 20.4813C16.64 20.4697 16.8464 20.2284 16.8357 19.9423L16.6613 15.2796ZM10.2451 23.0047C10.4251 22.7942 10.4129 22.4662 10.2177 22.272C10.0225 22.0779 9.71834 22.0911 9.5383 22.3016L10.2451 23.0047ZM11.0181 20.5715C10.8381 20.782 10.8503 21.1101 11.0455 21.3042C11.2407 21.4984 11.5449 21.4851 11.7249 21.2747L11.0181 20.5715ZM12.4648 20.4096C12.6448 20.1992 12.6326 19.8711 12.4374 19.677C12.2422 19.4828 11.9381 19.496 11.758 19.7065L12.4648 20.4096ZM13.2378 17.9765C13.0578 18.187 13.0701 18.515 13.2652 18.7092C13.4604 18.9033 13.7646 18.8901 13.9446 18.6796L13.2378 17.9765ZM14.6845 17.8146C14.8646 17.6041 14.8523 17.2761 14.6571 17.0819C14.462 16.8878 14.1578 16.901 13.9777 17.1115L14.6845 17.8146ZM15.4576 15.3814C15.2775 15.5919 15.2898 15.92 15.485 16.1141C15.6801 16.3083 15.9843 16.295 16.1643 16.0846L15.4576 15.3814ZM9.87513 23.4372L10.2451 23.0047L9.5383 22.3016L9.16835 22.7341L9.87513 23.4372ZM11.7249 21.2747L12.4648 20.4096L11.758 19.7065L11.0181 20.5715L11.7249 21.2747ZM13.9446 18.6796L14.6845 17.8146L13.9777 17.1115L13.2378 17.9765L13.9446 18.6796ZM16.1643 16.0846L16.5343 15.6521L15.8275 14.9489L15.4576 15.3814L16.1643 16.0846Z" fill="black"/>
</g>
</svg>
